<svg id="visual" viewBox="0 0 900 600" width="900" height="600" xmlns="http://www.w3.org/2000/svg" xmlns:xlink="http://www.w3.org/1999/xlink" version="1.1"><rect x="0" y="0" width="900" height="600" fill="#151211"></rect><g fill="none" stroke="#9c8394" stroke-width="4"><path d="M0 -122.7L27.5 -37.9L116.7 -37.9L44.6 14.5L72.1 99.3L0 46.9L-72.1 99.3L-44.6 14.5L-116.7 -37.9L-27.5 -37.9Z" transform="translate(545 468)"></path><path d="M0 -84.9L19.1 -26.2L80.8 -26.2L30.9 10L49.9 68.7L0 32.4L-49.9 68.7L-30.9 10L-80.8 -26.2L-19.1 -26.2Z" transform="translate(623 99)"></path><path d="M0 -113.3L25.4 -35L107.7 -35L41.1 13.4L66.6 91.6L0 43.3L-66.6 91.6L-41.1 13.4L-107.7 -35L-25.4 -35Z" transform="translate(180 212)"></path><path d="M0 -101.9L22.9 -31.5L96.9 -31.5L37 12L59.9 82.5L0 38.9L-59.9 82.5L-37 12L-96.9 -31.5L-22.9 -31.5Z" transform="translate(281 522)"></path><path d="M0 -108.5L24.4 -33.5L103.2 -33.5L39.4 12.8L63.8 87.8L0 41.5L-63.8 87.8L-39.4 12.8L-103.2 -33.5L-24.4 -33.5Z" transform="translate(885 139)"></path><path d="M0 -107.6L24.2 -33.2L102.3 -33.2L39.1 12.7L63.2 87L0 41.1L-63.2 87L-39.1 12.7L-102.3 -33.2L-24.2 -33.2Z" transform="translate(846 484)"></path><path d="M0 -84.9L19.1 -26.2L80.8 -26.2L30.9 10L49.9 68.7L0 32.4L-49.9 68.7L-30.9 10L-80.8 -26.2L-19.1 -26.2Z" transform="translate(21 484)"></path><path d="M0 -88.7L19.9 -27.4L84.4 -27.4L32.2 10.5L52.1 71.8L0 33.9L-52.1 71.8L-32.2 10.5L-84.4 -27.4L-19.9 -27.4Z" transform="translate(357 9)"></path></g></svg>